<?xml version="1.0" encoding="UTF-8"?><svg version="1.1" viewBox="0 0 16 16" xmlns="http://www.w3.org/2000/svg" xmlns:xlink="http://www.w3.org/1999/xlink"><!--Generated by IJSVG (https://github.com/curthard89/IJSVG)--><g fill="#434343" fill-rule="evenodd" stroke="none" stroke-width="1"><path d="M1.82,0c-1.034,1.185 -1.699,2.696 -1.82,4.363h0.971c0.121,-1.393 0.685,-2.659 1.551,-3.662l-0.702,-0.701v0Z" transform="translate(0.043, 2.581)"></path><path d="M1.26,0c-0.689,0.82 -1.145,1.841 -1.26,2.962l4.221,-0.001l-2.961,-2.961v0Z" transform="translate(2.006, 3.982)"></path><path d="M4.363,0c-1.664,0.116 -3.176,0.772 -4.363,1.8l0.703,0.703c1.006,-0.846 2.272,-1.391 3.66,-1.502v-1.001v0Z" transform="translate(2.606, 0.042)"></path><path d="M2.958,0c-1.115,0.107 -2.135,0.545 -2.958,1.216l2.958,2.958v-4.174v0Z" transform="translate(4.011, 2.031)"></path><path d="M0,0c0.1,1.121 0.542,2.146 1.227,2.971l2.998,-2.97l-4.225,-0.001v0Z" transform="translate(2.002, 8.032)"></path><path d="M0,0c0.109,1.657 0.768,3.165 1.8,4.346l0.687,-0.68c-0.862,-1.006 -1.414,-2.274 -1.519,-3.666h-0.968v0Z" transform="translate(0.041, 8.032)"></path><path d="M0,3.001c0.83,0.691 1.866,1.144 3.002,1.252v-4.253l-3.002,3.001v0Z" transform="translate(3.967, 8.731)"></path><path d="M0,0.687c1.19,1.041 2.712,1.707 4.389,1.823v-0.97c-1.407,-0.113 -2.688,-0.674 -3.701,-1.54l-0.688,0.687v0Z" transform="translate(2.58, 12.432)"></path><path d="M0.677,4.346c1.033,-1.182 1.689,-2.688 1.801,-4.346h-0.952c-0.106,1.395 -0.66,2.667 -1.526,3.674l0.677,0.672v0Z" transform="translate(12.466, 8.033)"></path><path d="M0,0l3.009,2.98c0.688,-0.825 1.134,-1.854 1.234,-2.98h-4.243v0Z" transform="translate(8.756, 8.033)"></path><path d="M4.237,2.97c-0.115,-1.124 -0.573,-2.148 -1.266,-2.97l-2.971,2.97h4.237v0Z" transform="translate(8.757, 3.973)"></path><path d="M2.513,4.362c-0.121,-1.666 -0.786,-3.178 -1.82,-4.362l-0.693,0.693c0.871,1.004 1.438,2.272 1.559,3.669h0.954v0Z" transform="translate(12.428, 2.581)"></path><path d="M0,2.501c1.676,-0.116 3.196,-0.782 4.387,-1.821l-0.68,-0.68c-1.016,0.864 -2.299,1.422 -3.707,1.532v0.969v0Z" transform="translate(8.016, 12.441)"></path><path d="M0,4.254c1.137,-0.106 2.176,-0.555 3.008,-1.244l-3.008,-3.01v4.254v0Z" transform="translate(8.016, 8.732)"></path></g></svg>